<?xml version="1.0" encoding="utf-8"?>
<!-- Generator: Adobe Illustrator 15.1.0, SVG Export Plug-In . SVG Version: 6.00 Build 0)  -->
<!DOCTYPE svg PUBLIC "-//W3C//DTD SVG 1.1//EN" "http://www.w3.org/Graphics/SVG/1.1/DTD/svg11.dtd">
<svg version="1.1" xmlns="http://www.w3.org/2000/svg" xmlns:xlink="http://www.w3.org/1999/xlink" x="0px" y="0px" width="800px"
	 height="500px" viewBox="0 0 800 500" enable-background="new 0 0 800 500" xml:space="preserve">
<g id="Layer_4">
	<g>
		<g id="TYQwd2.tif">
			<g id="XMLID_2_">
				<g>
					<path fill="#FFFFFF" d="M135.976,108.151c0,2.315,0,4.635,0,6.94c2.659,0,5.317,0,7.98,0c0,1.05,0,2.091,0,3.126
						c-3.704,0-7.403,0-11.107,0c0-7.289,0-14.577,0-21.865c3.375,0.21,7.608-0.43,10.41,0.349c0,0.926,0,1.852,0,2.783
						c-2.31,0-4.625,0-6.94,0c-0.711,1.136-0.187,3.508-0.344,5.198c0.821,0.807,3.112,0.129,4.51,0.348c0,1.041,0,2.081,0,3.122
						C138.983,108.151,137.479,108.151,135.976,108.151z"/>
					<path d="M132.85,96.352c0,7.289,0,14.577,0,21.865c3.704,0,7.403,0,11.107,0c0-1.036,0-2.076,0-3.126c-2.664,0-5.322,0-7.98,0
						c0-2.305,0-4.625,0-6.94c1.503,0,3.007,0,4.51,0c0-1.041,0-2.081,0-3.122c-1.398-0.219-3.689,0.458-4.51-0.348
						c0.157-1.69-0.368-4.062,0.344-5.198c2.315,0,4.63,0,6.94,0c0-0.931,0-1.857,0-2.783
						C140.458,95.922,136.224,96.562,132.85,96.352z M168.595,96.094c-1.723,7.303-3.799,14.252-5.208,21.87
						c1.045,0,2.086,0,3.126,0c0.344-2.091,0.745-4.114,1.389-5.899c1.504,0,3.007,0,4.511,0c0.425,1.995,1.079,3.775,1.389,5.899
						c1.041,0,2.081,0,3.122,0c-1.441-7.584-3.646-14.405-5.207-21.87C170.676,96.094,169.635,96.094,168.595,96.094z
						 M147.426,96.701c0,7.174,0,14.348,0,21.517c1.041,0,2.081,0,3.122,0c0.229-3.241-0.458-7.403,0.349-10.066
						c0.926,0,1.852,0,2.773,0c0.84,3.446,1.943,6.62,2.778,10.066c1.041,0,2.081,0,3.122,0c-0.559-3.833-1.981-6.811-2.773-10.41
						C163.97,102.905,157.078,92.83,147.426,96.701z M99.19,118.217c-0.224-7.179,0.454-15.264-0.348-21.865
						c-0.926,0-1.847,0-2.773,0c0,7.289,0,14.577,0,21.865C97.109,118.217,98.15,118.217,99.19,118.217z M115.5,118.217
						c0.812-6.596,0.114-14.691,0.348-21.865c-0.926,0-1.852,0-2.778,0c-1.021,3.384,0.334,9.126-0.692,12.496
						c-1.532-4.486-3.627-8.405-5.556-12.496c-0.921,0-1.847,0-2.773,0c-0.802,6.601-0.124,14.687-0.348,21.865
						c1.041,0,2.081,0,3.122,0c0.234-4.625-0.458-10.181,0.348-14.229c0.854,2.521,2.244,4.998,3.47,7.632
						C111.686,113.874,112.145,118.122,115.5,118.217z M125.91,118.217c0.802-5.556,0.124-12.601,0.349-18.734
						c1.27,0,2.544,0,3.818,0c0-1.041,0-2.081,0-3.131c-3.704,0-7.403,0-11.107,0c0,1.05,0,2.091,0,3.131
						c1.169,0.215,3.222-0.449,3.818,0.339c0,6.133,0,12.267,0,18.395C123.829,118.217,124.869,118.217,125.91,118.217z
						 M246.232,122.041c-62.23,0.807-125.964,0.11-188.771,0.339c4.716-14.486,11.068-27.335,19.431-38.17
						c22.318,7.045,52.369,5.794,73.915-0.348c1.79-0.506,6.577,1.041,9.718,1.742c19.927,4.434,46.155,5.031,65.929-1.394
						C235.35,94.515,241.158,107.908,246.232,122.041z M200.779,117.964c0-6.253,0-12.5,0-18.739c1.27,0,2.544,0,3.813,0
						c0-1.041,0-2.086,0-3.131c-3.699,0-7.403,0-11.102,0c0,1.045,0,2.091,0,3.131c1.169,0.215,3.222-0.454,3.818,0.339
						c0,6.133,0,12.267,0,18.4C198.464,117.964,199.619,117.964,200.779,117.964z"/>
					<path fill="#FFFFFF" d="M126.258,99.483c-0.225,6.133,0.453,13.178-0.349,18.734c-1.041,0-2.081,0-3.122,0
						c0-6.128,0-12.262,0-18.395c-0.597-0.788-2.649-0.124-3.818-0.339c0-1.041,0-2.081,0-3.131c3.704,0,7.403,0,11.107,0
						c0,1.05,0,2.091,0,3.131C128.802,99.483,127.528,99.483,126.258,99.483z"/>
					<path fill="#FFFFFF" d="M197.309,117.964c0-6.133,0-12.267,0-18.4c-0.597-0.792-2.649-0.124-3.818-0.339
						c0-1.041,0-2.086,0-3.131c3.699,0,7.403,0,11.102,0c0,1.045,0,2.091,0,3.131c-1.27,0-2.544,0-3.813,0
						c0,6.238,0,12.486,0,18.739C199.619,117.964,198.464,117.964,197.309,117.964z"/>
					<path d="M169.983,103.302c0.926,1.499,0.812,4.042,1.733,5.546c-0.368,0.788-2.182,0.129-3.122,0.344
						C169.024,107.191,169.673,105.416,169.983,103.302z"/>
					<path fill="#FFFFFF" d="M163.387,117.964c1.408-7.618,3.484-14.567,5.208-21.87c1.041,0,2.081,0,3.122,0
						c1.561,7.465,3.766,14.286,5.207,21.87c-1.041,0-2.081,0-3.122,0c-0.31-2.124-0.964-3.904-1.389-5.899
						c-1.503,0-3.007,0-4.511,0c-0.644,1.785-1.045,3.809-1.389,5.899C165.473,117.964,164.433,117.964,163.387,117.964z
						 M171.716,108.848c-0.921-1.503-0.807-4.047-1.733-5.546c-0.31,2.114-0.959,3.89-1.389,5.89
						C169.535,108.977,171.349,109.635,171.716,108.848z"/>
					<path fill="#FFFFFF" d="M147.426,118.217c0-7.169,0-14.343,0-21.517c9.651-3.871,16.543,6.205,9.37,11.106
						c0.792,3.599,2.214,6.578,2.773,10.41c-1.041,0-2.081,0-3.122,0c-0.835-3.446-1.938-6.62-2.778-10.066
						c-0.921,0-1.847,0-2.773,0c-0.807,2.664-0.12,6.826-0.349,10.066C149.507,118.217,148.467,118.217,147.426,118.217z
						 M156.099,104.342c0.363-0.921,0.415-2.138,0.348-3.475c-0.983-1.332-3.031-1.599-5.551-1.384
						c-0.559,1.174-0.559,4.367,0,5.546C152.906,105.072,154.939,105.139,156.099,104.342z"/>
					<path fill="#FFFFFF" d="M115.848,96.352c-0.234,7.174,0.463,15.269-0.348,21.865c-3.355-0.096-3.814-4.343-4.859-6.596
						c-1.227-2.635-2.616-5.112-3.47-7.632c-0.807,4.048-0.114,9.604-0.348,14.229c-1.041,0-2.081,0-3.122,0
						c0.224-7.179-0.454-15.264,0.348-21.865c0.926,0,1.852,0,2.773,0c1.928,4.091,4.023,8.009,5.556,12.496
						c1.026-3.37-0.33-9.111,0.692-12.496C113.997,96.352,114.922,96.352,115.848,96.352z"/>
					<path fill="#FFFFFF" d="M253.869,139.385c8.334,54.169-15.579,96.147-45.114,120.065
						c-11.293,9.149-24.285,17.192-40.599,22.905c-5.178,1.813-11.846,4.511-16.309,4.511c-4.353,0-11.517-2.573-17.001-4.511
						c-35.592-12.553-62.063-38.332-76.344-72.182c-8.453-20.023-13.24-46.942-8.677-72.874c4.1-23.273,13.751-42.561,26.719-57.949
						c19.058,6.64,45.491,7.222,66.626,2.435c2.883-0.659,5.885-2.358,8.329-2.435c2.587-0.081,5.728,1.757,8.678,2.435
						c21.116,4.816,47.362,4.19,67.318-2.435C240.323,95.011,250.146,115.177,253.869,139.385z M229.579,230.655
						c16.749-24.166,28.461-65.008,17.698-103.765c-63.509,0-127.009,0-190.514,0c-0.401,0.062-0.377,0.549-0.344,1.041
						c-11.274,38.929,1.856,79.489,18.042,103.068c12.715,18.52,30.891,33.788,53.095,43.721c5.57,2.496,18.204,8.1,24.638,7.98
						c3.117-0.048,8.324-2.104,12.491-3.47C192.908,270.008,214.835,251.918,229.579,230.655z M57.46,122.379
						c62.808-0.229,126.542,0.468,188.771-0.339c-5.074-14.133-10.882-27.526-19.779-37.831
						c-19.774,6.425-46.002,5.828-65.929,1.394c-3.141-0.702-7.928-2.248-9.718-1.742c-21.545,6.143-51.596,7.393-73.915,0.348
						C68.529,95.044,62.176,107.893,57.46,122.379z"/>
					<path fill="#FBB040" d="M247.277,126.89c10.763,38.757-0.95,79.599-17.698,103.765c-14.744,21.263-36.671,39.353-64.894,48.575
						c-4.167,1.365-9.374,3.422-12.491,3.47c-6.434,0.119-19.068-5.484-24.638-7.98c-22.204-9.933-40.38-25.201-53.095-43.721
						C58.276,207.419,45.146,166.859,56.42,127.93c-0.034-0.492-0.057-0.979,0.344-1.041
						C120.268,126.89,183.768,126.89,247.277,126.89z"/>
					<path d="M156.447,100.867c0.067,1.337,0.015,2.554-0.348,3.475c-1.16,0.797-3.193,0.73-5.203,0.687
						c-0.559-1.179-0.559-4.372,0-5.546C153.417,99.269,155.464,99.536,156.447,100.867z"/>
					<path fill="#FFFFFF" d="M98.842,96.352c0.802,6.601,0.124,14.687,0.348,21.865c-1.041,0-2.081,0-3.122,0
						c0-7.289,0-14.577,0-21.865C96.995,96.352,97.916,96.352,98.842,96.352z"/>
				</g>
				<g>
				</g>
			</g>
		</g>
		<path fill="#FFFFFF" stroke="#000000" d="M179.334,107.318c0-6.352,2.72-11.501,6.075-11.501c3.354,0,6.074,5.15,6.074,11.501
			c0,6.353-2.72,11.502-6.074,11.502C182.054,118.821,179.334,113.671,179.334,107.318"/>
		<path d="M191.82,104.706c0,1.757,0.01,3.435-0.252,5.17c-0.023,0.159,0.073,0.352-0.284,0.378c-0.674,0.05-2.041-0.143-2.38,0.179
			c-0.633,0.601-0.829,1.978-1.103,2.784c-1.13,3.328-3.994,1.653-4.971-0.577c-1.072-2.444-0.958-9.678,0.766-11.833
			c1.146-1.432,2.559-1.381,3.551-0.907c0.69,0.33,1.041,0.792,1.521,1.153c0.123,0.092,0.196,0.431,0.582,0.426
			c0.532-0.007,1.177-0.027,1.374-0.061"/>
		<text transform="matrix(1 0 0 1 101.2051 232.1699)"><tspan x="0" y="0" font-family="'Futura-Medium'" font-size="117.1476">#</tspan><tspan x="72.302" y="0" font-family="'Futura-Medium'" font-size="80">s</tspan></text>
		<text transform="matrix(0.1264 -0.992 0.992 0.1264 121.6826 166.1494)" font-family="'Futura-Medium'" font-size="8.5914">WITH</text>
	</g>
</g>
<g id="Layer_2">
	<g>
		<g id="TYQwd2.tif_4_">
			<g id="XMLID_5_">
				<g>
					<path fill="#FFFFFF" d="M364.876,108.848c1.026-3.37-0.329-9.111,0.692-12.496c0.926,0,1.852,0,2.778,0
						c-0.234,7.174,0.463,15.269-0.349,21.865c-3.355-0.096-3.813-4.343-4.859-6.596c-1.227-2.635-2.616-5.112-3.47-7.632
						c-0.807,4.048-0.115,9.604-0.349,14.229c-1.041,0-2.081,0-3.122,0c0.225-7.179-0.453-15.264,0.349-21.865
						c0.926,0,1.852,0,2.773,0C361.249,100.443,363.344,104.361,364.876,108.848z"/>
					<path fill="#FBB040" d="M309.262,126.89c63.504,0,127.005,0,190.514,0c10.764,38.757-0.949,79.599-17.698,103.765
						c-14.743,21.263-36.671,39.353-64.894,48.575c-4.162,1.365-9.374,3.422-12.486,3.47c-6.438,0.119-19.072-5.484-24.643-7.98
						c-22.204-9.933-40.379-25.201-53.095-43.721c-16.185-23.579-29.316-64.139-18.042-103.068
						C308.885,127.438,308.861,126.952,309.262,126.89z"/>
					<path fill="#FFFFFF" d="M424.911,112.065c-1.499,0-3.007,0-4.511,0c-0.644,1.785-1.045,3.809-1.389,5.899
						c-1.04,0-2.081,0-3.126,0c1.408-7.618,3.484-14.567,5.207-21.87c1.041,0,2.081,0,3.126,0c1.557,7.465,3.762,14.286,5.203,21.87
						c-1.041,0-2.081,0-3.117,0C425.99,115.84,425.336,114.06,424.911,112.065z M424.219,108.848
						c-0.926-1.503-0.807-4.047-1.732-5.546c-0.314,2.114-0.964,3.89-1.394,5.89C422.033,108.977,423.847,109.635,424.219,108.848z"
						/>
					<path fill="#FFFFFF" d="M388.474,104.681c0.821,0.807,3.112,0.129,4.511,0.348c0,1.041,0,2.081,0,3.122
						c-1.503,0-3.007,0-4.511,0c0,2.315,0,4.635,0,6.94c2.659,0,5.317,0,7.98,0c0,1.05,0,2.091,0,3.126c-3.704,0-7.403,0-11.106,0
						c0-7.289,0-14.577,0-21.865c3.375,0.21,7.608-0.43,10.41,0.349c0,0.926,0,1.852,0,2.783c-2.31,0-4.625,0-6.94,0
						C388.107,100.619,388.632,102.991,388.474,104.681z"/>
					<path fill="#FFFFFF" d="M499.775,126.89c-63.509,0-127.009,0-190.514,0c-0.401,0.062-0.377,0.549-0.344,1.041
						c-11.274,38.929,1.857,79.489,18.042,103.068c12.715,18.52,30.891,33.788,53.095,43.721c5.57,2.496,18.204,8.1,24.643,7.98
						c3.112-0.048,8.324-2.104,12.486-3.47c28.223-9.222,50.15-27.312,64.894-48.575
						C498.826,206.489,510.539,165.646,499.775,126.89z M412.678,81.785c21.111,4.816,47.358,4.19,67.318-2.435
						c12.825,15.66,22.648,35.826,26.371,60.035c8.338,54.169-15.579,96.147-45.114,120.065
						c-11.293,9.149-24.285,17.192-40.595,22.905c-5.184,1.813-11.851,4.511-16.313,4.511c-4.353,0-11.518-2.573-17.001-4.511
						c-35.592-12.553-62.063-38.332-76.344-72.182c-8.453-20.023-13.24-46.942-8.677-72.874c4.1-23.273,13.751-42.561,26.719-57.949
						c19.059,6.64,45.491,7.222,66.626,2.435c2.883-0.659,5.89-2.358,8.329-2.435C406.583,79.27,409.724,81.107,412.678,81.785z
						 M478.951,84.209c-19.774,6.425-46.002,5.828-65.93,1.394c-3.141-0.702-7.928-2.248-9.718-1.742
						c-21.545,6.143-51.596,7.393-73.914,0.348c-8.362,10.835-14.715,23.684-19.431,38.17c62.808-0.229,126.542,0.468,188.772-0.339
						C493.656,107.908,487.848,94.515,478.951,84.209z"/>
					<path d="M403.395,99.483c2.521-0.215,4.572,0.052,5.551,1.384c0.067,1.337,0.015,2.554-0.344,3.475
						c-1.164,0.797-3.197,0.73-5.207,0.687C402.836,103.851,402.836,100.657,403.395,99.483z"/>
					<path fill="#FFFFFF" d="M375.287,99.822c-0.597-0.788-2.649-0.124-3.818-0.339c0-1.041,0-2.081,0-3.131
						c3.704,0,7.403,0,11.106,0c0,1.05,0,2.091,0,3.131c-1.274,0-2.549,0-3.818,0c-0.224,6.133,0.454,13.178-0.348,18.734
						c-1.041,0-2.081,0-3.122,0C375.287,112.089,375.287,105.956,375.287,99.822z"/>
					<path fill="#FFFFFF" d="M351.689,118.217c-1.041,0-2.081,0-3.122,0c0-7.289,0-14.577,0-21.865c0.926,0,1.847,0,2.773,0
						C352.142,102.953,351.464,111.039,351.689,118.217z"/>
					<path fill="#FFFFFF" d="M408.945,100.867c-0.979-1.332-3.03-1.599-5.551-1.384c-0.559,1.174-0.559,4.367,0,5.546
						c2.01,0.043,4.043,0.11,5.207-0.687C408.96,103.421,409.013,102.204,408.945,100.867z M399.925,96.701
						c9.655-3.871,16.543,6.205,9.369,11.106c0.792,3.599,2.215,6.578,2.773,10.41c-1.041,0-2.081,0-3.122,0
						c-0.835-3.446-1.938-6.62-2.777-10.066c-0.922,0-1.848,0-2.773,0c-0.807,2.664-0.119,6.826-0.349,10.066
						c-1.04,0-2.081,0-3.121,0C399.925,111.048,399.925,103.875,399.925,96.701z"/>
					<path fill="#FFFFFF" d="M449.808,99.564c-0.597-0.792-2.649-0.124-3.819-0.339c0-1.041,0-2.086,0-3.131
						c3.699,0,7.403,0,11.103,0c0,1.045,0,2.091,0,3.131c-1.27,0-2.544,0-3.813,0c0,6.238,0,12.486,0,18.739c-1.16,0-2.311,0-3.47,0
						C449.808,111.831,449.808,105.698,449.808,99.564z"/>
					<path d="M421.093,109.191c0.43-2,1.079-3.775,1.394-5.89c0.926,1.499,0.807,4.042,1.732,5.546
						C423.847,109.635,422.033,108.977,421.093,109.191z"/>
					<path d="M429.422,117.964c-1.441-7.584-3.646-14.405-5.203-21.87c-1.045,0-2.085,0-3.126,0
						c-1.723,7.303-3.799,14.252-5.207,21.87c1.045,0,2.086,0,3.126,0c0.344-2.091,0.745-4.114,1.389-5.899c1.504,0,3.012,0,4.511,0
						c0.425,1.995,1.079,3.775,1.394,5.899C427.341,117.964,428.381,117.964,429.422,117.964z M457.091,96.094
						c-3.699,0-7.403,0-11.103,0c0,1.045,0,2.091,0,3.131c1.17,0.215,3.223-0.454,3.819,0.339c0,6.133,0,12.267,0,18.4
						c1.159,0,2.31,0,3.47,0c0-6.253,0-12.5,0-18.739c1.27,0,2.544,0,3.813,0C457.091,98.185,457.091,97.14,457.091,96.094z
						 M378.408,118.217c0.802-5.556,0.124-12.601,0.348-18.734c1.27,0,2.544,0,3.818,0c0-1.041,0-2.081,0-3.131
						c-3.704,0-7.403,0-11.106,0c0,1.05,0,2.091,0,3.131c1.169,0.215,3.222-0.449,3.818,0.339c0,6.133,0,12.267,0,18.395
						C376.327,118.217,377.368,118.217,378.408,118.217z M412.067,118.217c-0.559-3.833-1.981-6.811-2.773-10.41
						c7.174-4.902,0.286-14.978-9.369-11.106c0,7.174,0,14.348,0,21.517c1.041,0,2.081,0,3.121,0
						c0.229-3.241-0.458-7.403,0.349-10.066c0.926,0,1.852,0,2.773,0c0.84,3.446,1.942,6.62,2.777,10.066
						C409.986,118.217,411.026,118.217,412.067,118.217z M385.348,96.352c0,7.289,0,14.577,0,21.865c3.704,0,7.403,0,11.106,0
						c0-1.036,0-2.076,0-3.126c-2.663,0-5.322,0-7.98,0c0-2.305,0-4.625,0-6.94c1.503,0,3.007,0,4.511,0c0-1.041,0-2.081,0-3.122
						c-1.398-0.219-3.689,0.458-4.511-0.348c0.158-1.69-0.367-4.062,0.344-5.198c2.315,0,4.63,0,6.94,0c0-0.931,0-1.857,0-2.783
						C392.956,95.922,388.723,96.562,385.348,96.352z M329.39,84.209c22.318,7.045,52.369,5.794,73.914-0.348
						c1.79-0.506,6.577,1.041,9.718,1.742c19.928,4.434,46.155,5.031,65.93-1.394c8.896,10.305,14.705,23.698,19.779,37.831
						c-62.23,0.807-125.964,0.11-188.772,0.339C314.674,107.893,321.027,95.044,329.39,84.209z M364.876,108.848
						c-1.532-4.486-3.627-8.405-5.556-12.496c-0.921,0-1.847,0-2.773,0c-0.802,6.601-0.124,14.687-0.349,21.865
						c1.041,0,2.081,0,3.122,0c0.234-4.625-0.458-10.181,0.349-14.229c0.854,2.521,2.243,4.998,3.47,7.632
						c1.045,2.253,1.503,6.5,4.859,6.596c0.812-6.596,0.115-14.691,0.349-21.865c-0.926,0-1.852,0-2.778,0
						C364.547,99.736,365.903,105.478,364.876,108.848z M348.567,118.217c1.041,0,2.081,0,3.122,0
						c-0.225-7.179,0.453-15.264-0.349-21.865c-0.926,0-1.847,0-2.773,0C348.567,103.641,348.567,110.929,348.567,118.217z"/>
				</g>
				<g>
				</g>
			</g>
		</g>
		<path fill="#FFFFFF" stroke="#000000" d="M431.834,107.318c0-6.352,2.719-11.501,6.074-11.501c3.354,0,6.074,5.15,6.074,11.501
			c0,6.353-2.721,11.502-6.074,11.502C434.553,118.821,431.834,113.671,431.834,107.318"/>
		<path d="M444.318,104.706c0,1.757,0.01,3.435-0.252,5.17c-0.023,0.159,0.072,0.352-0.283,0.378
			c-0.674,0.05-2.041-0.143-2.381,0.179c-0.633,0.601-0.828,1.978-1.102,2.784c-1.131,3.328-3.994,1.653-4.973-0.577
			c-1.07-2.444-0.957-9.678,0.766-11.833c1.146-1.432,2.559-1.381,3.553-0.907c0.689,0.33,1.039,0.792,1.52,1.153
			c0.123,0.092,0.197,0.431,0.582,0.426c0.533-0.007,1.178-0.027,1.375-0.061"/>
		<text transform="matrix(1 0 0 1 353.7026 232.1699)"><tspan x="0" y="0" font-family="'Futura-Medium'" font-size="117.1476">#</tspan><tspan x="72.302" y="0" font-family="'Futura-Medium'" font-size="80">s</tspan></text>
		<text transform="matrix(0.1264 -0.992 0.992 0.1264 374.1802 166.1494)" font-family="'Futura-Medium'" font-size="8.5914">WITH</text>
	</g>
</g>
<g id="Layer_3">
	<g>
		<g id="TYQwd2.tif_2_">
			<g id="XMLID_3_">
				<g>
					<path fill="#FFFFFF" d="M637.85,118.221c0-7.289,0-14.577,0-21.865c3.374,0.21,7.607-0.43,10.409,0.349
						c0,0.926,0,1.852,0,2.778c-2.31,0-4.625,0-6.939,0c-0.711,1.141-0.187,3.513-0.344,5.203c0.82,0.802,3.112,0.124,4.511,0.348
						c0,1.041,0,2.081,0,3.122c-1.504,0-3.008,0-4.511,0c0,2.315,0,4.63,0,6.94c2.658,0,5.317,0,7.98,0c0,1.045,0,2.086,0,3.126
						C645.252,118.221,641.553,118.221,637.85,118.221z"/>
					<path fill="#FFFFFF" d="M563.5,210.177c-8.453-20.023-13.24-46.947-8.677-72.874c4.1-23.273,13.751-42.561,26.719-57.949
						c19.059,6.639,45.491,7.222,66.626,2.43c2.883-0.654,5.886-2.353,8.329-2.43c2.587-0.081,5.728,1.757,8.678,2.43
						c21.115,4.821,47.362,4.195,67.318-2.43c12.829,15.66,22.652,35.826,26.375,60.035c8.334,54.164-15.579,96.143-45.114,120.064
						c-11.293,9.15-24.285,17.192-40.599,22.906c-5.179,1.809-11.847,4.51-16.31,4.51c-4.354,0-11.518-2.577-17.002-4.51
						C604.252,269.806,577.781,244.022,563.5,210.177z M562.46,122.383c62.808-0.229,126.541,0.463,188.771-0.344
						c-5.073-14.133-10.883-27.521-19.779-37.826c-19.774,6.425-46.002,5.828-65.93,1.389c-3.141-0.702-7.928-2.248-9.718-1.737
						c-21.545,6.143-51.596,7.393-73.914,0.348C573.528,95.048,567.176,107.896,562.46,122.383z M752.276,126.893
						c-63.509,0-127.009,0-190.514,0c-0.4,0.062-0.377,0.549-0.344,1.041c-11.273,38.924,1.857,79.489,18.042,103.063
						c12.716,18.524,30.891,33.792,53.095,43.725c5.57,2.492,18.204,8.101,24.639,7.98c3.116-0.052,8.324-2.104,12.49-3.47
						c28.223-9.222,50.15-27.315,64.894-48.579C751.327,206.492,763.04,165.65,752.276,126.893z"/>
					<path d="M655.896,105.033c-0.559-1.179-0.559-4.372,0-5.551c2.521-0.21,4.568,0.057,5.552,1.389
						c0.066,1.336,0.014,2.554-0.349,3.47C659.938,105.143,657.905,105.076,655.896,105.033z"/>
					<path fill="#FFFFFF" d="M617.378,108.851c1.026-3.37-0.329-9.116,0.692-12.496c0.926,0,1.852,0,2.777,0
						c-0.233,7.174,0.463,15.269-0.349,21.865c-3.355-0.096-3.813-4.344-4.858-6.596c-1.227-2.635-2.616-5.112-3.47-7.632
						c-0.807,4.048-0.115,9.599-0.349,14.229c-1.041,0-2.081,0-3.122,0c0.225-7.179-0.453-15.264,0.349-21.865
						c0.926,0,1.852,0,2.773,0C613.75,100.446,615.846,104.365,617.378,108.851z"/>
					<path fill="#FFFFFF" d="M673.594,109.195c0.94-0.215,2.754,0.444,3.122-0.344c-0.922-1.503-0.807-4.047-1.732-5.551
						C674.673,105.419,674.023,107.195,673.594,109.195z M677.412,112.063c-1.503,0-3.007,0-4.51,0
						c-0.645,1.785-1.046,3.813-1.39,5.899c-1.04,0-2.081,0-3.126,0c1.408-7.618,3.484-14.562,5.207-21.865c1.041,0,2.081,0,3.122,0
						c1.561,7.465,3.766,14.286,5.207,21.865c-1.04,0-2.081,0-3.121,0C678.491,115.844,677.837,114.063,677.412,112.063z"/>
					<path fill="#FFFFFF" d="M631.258,99.482c-0.225,6.138,0.453,13.178-0.349,18.739c-1.04,0-2.081,0-3.121,0
						c0-6.133,0-12.262,0-18.395c-0.597-0.792-2.649-0.125-3.818-0.344c0-1.041,0-2.081,0-3.126c3.703,0,7.402,0,11.106,0
						c0,1.045,0,2.086,0,3.126C633.802,99.482,632.527,99.482,631.258,99.482z"/>
					<path fill="#FBB040" d="M561.763,126.893c63.505,0,127.005,0,190.514,0c10.764,38.757-0.949,79.599-17.698,103.76
						c-14.743,21.264-36.671,39.357-64.894,48.579c-4.166,1.365-9.374,3.418-12.49,3.47c-6.435,0.12-19.068-5.488-24.639-7.98
						c-22.204-9.933-40.379-25.201-53.095-43.725c-16.185-23.574-29.315-64.139-18.042-103.063
						C561.386,127.442,561.362,126.955,561.763,126.893z"/>
					<path fill="#FFFFFF" d="M702.309,117.963c0-6.133,0-12.262,0-18.395c-0.597-0.792-2.649-0.124-3.818-0.344
						c0-1.041,0-2.081,0-3.126c3.699,0,7.402,0,11.102,0c0,1.045,0,2.086,0,3.126c-1.27,0-2.544,0-3.813,0
						c0,6.243,0,12.491,0,18.739C704.618,117.963,703.464,117.963,702.309,117.963z"/>
					<path d="M676.716,108.851c-0.368,0.788-2.182,0.129-3.122,0.344c0.43-2,1.079-3.775,1.39-5.895
						C675.909,104.804,675.794,107.348,676.716,108.851z"/>
					<path d="M702.309,99.568c0,6.133,0,12.262,0,18.395c1.155,0,2.31,0,3.47,0c0-6.248,0-12.496,0-18.739c1.27,0,2.544,0,3.813,0
						c0-1.041,0-2.081,0-3.126c-3.699,0-7.402,0-11.102,0c0,1.045,0,2.086,0,3.126C699.659,99.444,701.712,98.775,702.309,99.568z
						 M604.19,118.221c-0.225-7.179,0.453-15.264-0.349-21.865c-0.926,0-1.848,0-2.773,0c0,7.289,0,14.577,0,21.865
						C602.109,118.221,603.149,118.221,604.19,118.221z M678.802,117.963c1.04,0,2.081,0,3.121,0
						c-1.441-7.58-3.646-14.4-5.207-21.865c-1.041,0-2.081,0-3.122,0c-1.723,7.303-3.799,14.248-5.207,21.865
						c1.045,0,2.086,0,3.126,0c0.344-2.086,0.745-4.114,1.39-5.899c1.503,0,3.007,0,4.51,0
						C677.837,114.063,678.491,115.844,678.802,117.963z M581.891,84.213c22.318,7.045,52.369,5.794,73.914-0.348
						c1.79-0.511,6.577,1.036,9.718,1.737c19.928,4.439,46.155,5.036,65.93-1.389c8.896,10.305,14.706,23.693,19.779,37.826
						c-62.23,0.807-125.964,0.114-188.771,0.344C567.176,107.896,573.528,95.048,581.891,84.213z M640.976,108.154
						c1.503,0,3.007,0,4.511,0c0-1.041,0-2.081,0-3.122c-1.398-0.224-3.69,0.454-4.511-0.348c0.157-1.69-0.367-4.062,0.344-5.203
						c2.314,0,4.63,0,6.939,0c0-0.926,0-1.852,0-2.778c-2.802-0.778-7.035-0.139-10.409-0.349c0,7.289,0,14.577,0,21.865
						c3.703,0,7.402,0,11.106,0c0-1.041,0-2.081,0-3.126c-2.663,0-5.322,0-7.98,0C640.976,112.784,640.976,110.469,640.976,108.154z
						 M652.426,118.221c1.041,0,2.081,0,3.122,0c0.229-3.241-0.459-7.403,0.348-10.066c0.926,0,1.853,0,2.773,0
						c0.84,3.446,1.942,6.62,2.778,10.066c1.04,0,2.08,0,3.121,0c-0.559-3.833-1.98-6.811-2.773-10.41
						c7.174-4.902,0.282-14.978-9.369-11.106C652.426,103.878,652.426,111.047,652.426,118.221z M618.07,96.355
						c-1.021,3.379,0.334,9.126-0.692,12.496c-1.532-4.486-3.628-8.405-5.556-12.496c-0.922,0-1.848,0-2.773,0
						c-0.802,6.601-0.124,14.687-0.349,21.865c1.041,0,2.081,0,3.122,0c0.233-4.63-0.458-10.181,0.349-14.229
						c0.854,2.521,2.243,4.998,3.47,7.632c1.045,2.252,1.503,6.5,4.858,6.596c0.812-6.596,0.115-14.691,0.349-21.865
						C619.922,96.355,618.996,96.355,618.07,96.355z M630.909,118.221c0.802-5.561,0.124-12.601,0.349-18.739
						c1.27,0,2.544,0,3.818,0c0-1.041,0-2.081,0-3.126c-3.704,0-7.403,0-11.106,0c0,1.045,0,2.086,0,3.126
						c1.169,0.219,3.222-0.449,3.818,0.344c0,6.133,0,12.262,0,18.395C628.828,118.221,629.869,118.221,630.909,118.221z"/>
					<path fill="#FFFFFF" d="M655.896,99.482c-0.559,1.179-0.559,4.372,0,5.551c2.01,0.043,4.043,0.11,5.203-0.692
						c0.362-0.917,0.415-2.134,0.349-3.47C660.464,99.539,658.416,99.272,655.896,99.482z M655.548,118.221
						c-1.041,0-2.081,0-3.122,0c0-7.174,0-14.343,0-21.517c9.651-3.871,16.543,6.205,9.369,11.106
						c0.793,3.599,2.215,6.577,2.773,10.41c-1.041,0-2.081,0-3.121,0c-0.836-3.446-1.938-6.62-2.778-10.066
						c-0.921,0-1.848,0-2.773,0C655.089,110.818,655.776,114.98,655.548,118.221z"/>
					<path fill="#FFFFFF" d="M603.842,96.355c0.802,6.601,0.124,14.687,0.349,21.865c-1.041,0-2.081,0-3.122,0
						c0-7.289,0-14.577,0-21.865C601.994,96.355,602.916,96.355,603.842,96.355z"/>
				</g>
				<g>
				</g>
			</g>
		</g>
		<path fill="#FFFFFF" stroke="#000000" d="M684.335,107.317c0-6.352,2.719-11.501,6.074-11.501c3.354,0,6.074,5.15,6.074,11.501
			c0,6.353-2.72,11.502-6.074,11.502C687.054,118.82,684.335,113.67,684.335,107.317"/>
		<path d="M696.819,104.705c0,1.757,0.01,3.435-0.252,5.17c-0.023,0.159,0.072,0.352-0.283,0.378
			c-0.674,0.05-2.041-0.143-2.381,0.179c-0.633,0.601-0.828,1.978-1.102,2.784c-1.131,3.328-3.994,1.653-4.972-0.577
			c-1.071-2.444-0.958-9.678,0.766-11.833c1.146-1.432,2.559-1.381,3.552-0.907c0.689,0.33,1.04,0.792,1.521,1.153
			c0.122,0.092,0.196,0.431,0.582,0.426c0.532-0.007,1.177-0.027,1.374-0.061"/>
		<text transform="matrix(1 0 0 1 606.2051 232.1689)"><tspan x="0" y="0" font-family="'Futura-Medium'" font-size="117.1476">#</tspan><tspan x="72.303" y="0" font-family="'Futura-Medium'" font-size="80">s</tspan></text>
		<text transform="matrix(0.1264 -0.992 0.992 0.1264 626.6826 166.1484)" font-family="'Futura-Medium'" font-size="8.5914">WITH</text>
	</g>
</g>
<g id="Layer_5">
	<text transform="matrix(1 0 0 1 68 384)" fill="#DD4B38" font-family="'Futura-Medium'" font-size="80">On Ramp for d3.js</text>
	<text transform="matrix(1 0 0 1 223.7866 428)" font-family="'Futura-Medium'" font-size="36">Thursday, March 20th</text>
</g>
</svg>
